HIERARCHY
ROOT ui
{
	 OFFSET 0 0 0
	 CHANNELS 3 XPosition YPosition Z Position
	 EndSite
	 {
	 OFFSET 0 -1 0
	 }
}
ROOT li
{
	 OFFSET 0 0 0
	 CHANNELS 3 XPosition YPosition Z Position
	 EndSite
	 {
	 OFFSET 0 -1 0
	 }
}
ROOT ul
{
	 OFFSET 0 0 0
	 CHANNELS 3 XPosition YPosition Z Position
	 EndSite
	 {
	 OFFSET 0 -1 0
	 }
}
ROOT ll
{
	 OFFSET 0 0 0
	 CHANNELS 3 XPosition YPosition Z Position
	 EndSite
	 {
	 OFFSET 0 -1 0
	 }
}
ROOT tt
{
	 OFFSET 0 0 0
	 CHANNELS 3 XPosition YPosition Z Position
	 EndSite
	 {
	 OFFSET 0 -1 0
	 }
}
ROOT tb
{
	 OFFSET 0 0 0
	 CHANNELS 3 XPosition YPosition Z Position
	 EndSite
	 {
	 OFFSET 0 -1 0
	 }
}
ROOT td
{
	 OFFSET 0 0 0
	 CHANNELS 3 XPosition YPosition Z Position
	 EndSite
	 {
	 OFFSET 0 -1 0
	 }
}
ROOT v
{
	 OFFSET 0 0 0
	 CHANNELS 3 XPosition YPosition Z Position
	 EndSite
	 {
	 OFFSET 0 -1 0
	 }
}
ROOT bn
{
	 OFFSET 0 0 0
	 CHANNELS 3 XPosition YPosition Z Position
	 EndSite
	 {
	 OFFSET 0 -1 0
	 }
}
MOTION
Frames: 29
Frame Time: 0.002
-0.0032869510650634765	0.0015800600051879884	0		0.4077284240722656	-2.401928955078125	0		-1.0873128662109375	-0.040201488494873046	0		-0.7919251708984375	-2.3214228515625	0		1.4129244384765625	-0.56325927734375	0		3.02827001953125	-0.10180109405517578	0		4.39137939453125	-0.058484027862548825	0		5.58365771484375	0.04618987655639648	0		-0.16692013549804688	5.8949140625	0		
0.005769223213195801	-0.008256528854370117	0		0.41887030029296873	-2.40780419921875	0		-1.0880589599609376	-0.03984772491455078	0		-0.8526522827148437	-2.3198935546875	0		1.39833935546875	-0.5546248779296875	0		3.04350146484375	-0.10274706268310548	0		4.40986474609375	-0.046486808776855466	0		5.5870478515625	0.05348558044433594	0		-0.15347267150878907	5.90599462890625	0		
-0.001753438949584961	0.0052527570724487304	0		0.4103175964355469	-2.396273193359375	0		-1.07480078125	-0.03775146102905273	0		-0.7872977905273437	-2.313815185546875	0		1.4206173095703125	-0.5516956787109375	0		3.048585205078125	-0.10947710418701172	0		4.38985546875	-0.05772145462036133	0		5.57732958984375	0.05705670166015625	0		-0.16848577880859375	5.89564501953125	0		
0.02242229652404785	0.0041517457962036135	0		0.4344248046875	-2.401371826171875	0		-1.089636962890625	-0.0390933952331543	0		-0.8281197509765625	-2.314647216796875	0		1.3967652587890624	-0.5538511962890625	0		3.06201806640625	-0.09735296630859375	0		4.4000341796875	-0.058530670166015625	0		5.58552783203125	0.057291248321533206	0		-0.18350259399414062	5.88630810546875	0		
0.0033790409564971925	-0.00709657621383667	0		0.40462863159179685	-2.400405517578125	0		-1.053455810546875	-0.039424850463867185	0		-0.7950261840820313	-2.319917724609375	0		1.415932373046875	-0.5548392944335937	0		3.00913818359375	-0.0999247055053711	0		4.3943994140625	-0.049018829345703126	0		5.5705615234375	0.04998746109008789	0		-0.18433941650390626	5.88670458984375	0		
0.0025622110366821287	-0.006694738864898682	0		0.4307778625488281	-2.40252978515625	0		-1.091265380859375	-0.03830380249023437	0		-0.8327672729492187	-2.315796142578125	0		1.395141357421875	-0.553040283203125	0		3.040296142578125	-0.10113565063476562	0		4.39225048828125	-0.0655751953125	0		5.57970361328125	0.048218128204345706	0		-0.170008544921875	5.895810546875	0		
-0.008056793212890625	0.0039018399715423585	0		0.4148965148925781	-2.405830810546875	0		-1.07927978515625	-0.04815800476074219	0		-0.784759033203125	-2.325353515625	0		1.3943271484375	-0.5526312866210937	0		3.05665283203125	-0.09205361938476563	0		4.39968701171875	-0.05231199264526367	0		5.58302294921875	0.05556591033935547	0		-0.16987063598632812	5.895193359375	0		
0.012971194267272949	-0.004125641822814941	0		0.444129150390625	-2.4040146484375	0		-1.0688975830078125	-0.03797858810424805	0		-0.8153588256835937	-2.31437109375	0		1.396595947265625	-0.5482833862304688	0		3.036923583984375	-0.08726817321777344	0		4.3991884765625	-0.03589440155029297	0		5.58221142578125	0.05599179458618164	0		-0.17168833923339843	5.89661279296875	0		
-0.006611698150634766	0.007640689849853516	0		0.4324576416015625	-2.39740185546875	0		-1.0207278442382812	-0.039544048309326174	0		-0.7961735229492187	-2.31536865234375	0		1.41269580078125	-0.5532115478515625	0		3.021890625	-0.09858177947998047	0		4.39597705078125	-0.05643482208251953	0		5.567314453125	0.05168814468383789	0		-0.1876891326904297	5.88830419921875	0		
-6.546069979667664E-4	-0.0051035890579223635	0		0.4276033630371094	-2.400930908203125	0		-1.094481689453125	-0.03673197174072266	0		-0.7969507446289062	-2.31498193359375	0		1.4119107666015625	-0.5528152465820313	0		3.037080810546875	-0.0994908447265625	0		4.37936865234375	-0.046714317321777346	0		5.56652685546875	0.05210284423828125	0		-0.18850265502929686	5.888693359375	0		
-0.0014236340522766114	-0.004723182201385498	0		0.4268450012207031	-2.400548828125	0		-1.058257568359375	-0.037079391479492185	0		-0.8018064575195313	-2.319526123046875	0		1.4111441650390626	-0.5524285888671875	0		3.036312255859375	-0.099096923828125	0		4.38344287109375	-0.05441059112548828	0		5.57571630859375	0.0503130111694336	0		-0.17412490844726564	5.8977783203125	0		
-0.011972126960754394	0.005838484764099121	0		0.4011930847167969	-2.39569091796875	0		-1.0831939697265625	-0.046245246887207034	0		-0.8245569458007812	-2.3197314453125	0		1.39042431640625	-0.5506633911132812	0		3.03072412109375	-0.09061868286132813	0		4.38993017578125	-0.04216138458251953	0		5.574302734375	0.06772299194335937	0		-0.16068539428710937	5.9088701171875	0		
0.026166681289672852	-0.0015680680274963378	0		0.4383044128417969	-2.40507568359375	0		-1.0515848388671876	-0.02952474784851074	0		-0.7872702026367188	-2.320123779296875	0		1.3927874755859375	-0.5463623046875	0		3.040712646484375	-0.1054624252319336	0		4.39295849609375	-0.05486234664916992	0		5.57358544921875	0.06810328674316406	0		-0.17564260864257814	5.89849853515625	0		
-0.003569495916366577	-0.0036639039516448975	0		0.3998161010742188	-2.39499609375	0		-1.09739599609375	-0.035312721252441406	0		-0.799822509765625	-2.31355712890625	0		1.409006103515625	-0.5513491821289063	0		3.042381103515625	-0.0871527099609375	0		4.3854140625	-0.04736815643310547	0		5.56876611328125	0.06154737854003906	0		-0.19056687927246094	5.8881103515625	0		
0.020779830932617187	-0.0038333899974823	0		0.42409942626953123	-2.39916259765625	0		-1.098041748046875	-0.03499974060058594	0		-0.802514892578125	-2.316203125	0		1.3883863525390625	-0.54963330078125	0		3.028679443359375	-0.08956444549560547	0		4.39163037109375	-0.05416273498535156	0		5.56811962890625	0.061894096374511716	0		-0.192203369140625	5.890447265625	0		
-0.007881045818328858	-0.005987846851348877	0		0.39654840087890625	-2.39633544921875	0		-1.098649169921875	-0.03470700836181641	0		-0.805149169921875	-2.317869384765625	0		1.4047001953125	-0.5536586303710938	0		2.99919482421875	-0.08268544769287109	0		4.38727734375	-0.04076584625244141	0		5.57231591796875	0.0521258544921875	0		-0.1766886444091797	5.8984306640625	0		
-0.005393021106719971	-0.00276899790763855	0		0.43276971435546874	-2.407775146484375	0		-1.0864166259765624	-0.04468666076660156	0		-0.8277219848632813	-2.31816650390625	0		1.3872144775390625	-0.5490421752929687	0		3.04951806640625	-0.08838532257080078	0		4.38670751953125	-0.04046420669555664	0		5.57588134765625	0.05935451126098633	0		-0.16211767578125	5.90741357421875	0		
-0.002867958068847656	4.3009099364280703E-4	0		0.4036458740234375	-2.38695263671875	0		-1.07981396484375	-0.037572383880615234	0		-0.7882105102539062	-2.316693359375	0		1.40973876953125	-0.5462254028320312	0		3.0181865234375	-0.07750737762451172	0		4.38133203125	-0.03208552169799805	0		5.5705439453125	0.06973945617675781	0		-0.1930484161376953	5.889259765625	0		
0.022631124496459962	1.6286200284957886E-4	0		0.44992062377929687	-2.399624755859375	0		-1.05919677734375	-0.031749425888061525	0		-0.802612548828125	-2.312185791015625	0		1.3861917724609376	-0.5485285034179688	0		3.026474853515625	-0.08842375946044922	0		4.38460107421875	-0.04389641571044922	0		5.5707158203125	0.05299481201171875	0		-0.1935780944824219	5.889498046875	0		
-0.003823759078979492	8.926150202751159E-4	0		0.42353817749023437	-2.39589306640625	0		-1.063714111328125	-0.03445423126220703	0		-0.8051170654296875	-2.31492822265625	0		1.4226307373046876	-0.5540179443359375	0		3.01897802734375	-0.09004650115966797	0		4.37314404296875	-0.04343366622924805	0		5.560296875	0.0554445915222168	0		-0.1940721893310547	5.8897197265625	0		
-0.007307613849639892	-0.0018409789800643921	0		0.4210878601074219	-2.397643798828125	0		-1.0952314453125	-0.03864811325073242	0		-0.8055292358398437	-2.3147255859375	0		1.3853125	-0.54808203125	0		3.030433349609375	-0.09605388641357422	0		4.3847939453125	-0.03943491363525391	0		5.56982958984375	0.05349049758911133	0		-0.18032139587402343	5.9006513671875	0		
-0.007702416896820068	-0.0016474939584732056	0		0.40563262939453126	-2.40115478515625	0		-1.0887247314453126	-0.0435966911315918	0		-0.7852255859375	-2.330943115234375	0		1.404897705078125	-0.5492694702148437	0		3.032389404296875	-0.07788421630859375	0		4.37955615234375	-0.031118707656860353	0		5.57356982421875	0.06063881301879883	0		-0.17977194213867187	5.89982421875	0		
0.020984851837158203	9.685490131378174E-4	0		0.40732073974609373	-2.399010009765625	0		-1.0937581787109374	-0.026328035354614258	0		-0.8282762451171874	-2.31493212890625	0		1.3876361083984374	-0.5437490234375	0		3.03788671875	-0.0847990951538086	0		4.3901884765625	-0.031123748779296877	0		5.56839990234375	0.07095103454589843	0		-0.18017500305175782	5.90000439453125	0		
-0.015151999473571777	0.011838671684265136	0		0.4220732116699219	-2.395129150390625	0		-1.0534544677734374	-0.04495893478393555	0		-0.8045260009765625	-2.311234375	0		1.4042008056640625	-0.5488988647460937	0		3.037548828125	-0.08460807037353515	0		4.3826181640625	-0.04278528213500977	0		5.572923828125	0.06406269073486329	0		-0.19476364135742188	5.88944921875	0		
0.016275339126586914	-0.0016199359893798828	0		0.4026238708496094	-2.40259326171875	0		-1.1025443115234375	-0.03285282897949219	0		-0.8068818359375	-2.31403857421875	0		1.400833251953125	-0.5516685791015625	0		3.02727685546875	-0.08223141479492188	0		4.389537109375	-0.03073221015930176	0		5.563611328125	0.06443749237060546	0		-0.19609754943847657	5.89062890625	0		
-0.009011797904968262	-9.809250235557555E-4	0		0.41740438842773436	-2.399730224609375	0		-1.0599608154296876	-0.03954339599609375	0		-0.8091959838867188	-2.3158525390625	0		1.3954100341796876	-0.5584075927734375	0		3.0151044921875	-0.07582527923583984	0		4.37585888671875	-0.050292129516601565	0		5.56812353515625	0.054533767700195315	0		-0.1812391357421875	5.900486328125	0		
-0.009285375595092774	-8.381329774856568E-4	0		0.40413128662109377	-2.400331298828125	0		-1.0903062744140626	-0.0428241081237793	0		-0.8694413452148437	-2.314548828125	0		1.383356689453125	-0.5470233154296875	0		3.0497275390625	-0.08134014892578124	0		4.38693359375	-0.032334716796875	0		5.57198486328125	0.06163806533813477	0		-0.1805753173828125	5.8996083984375	0		
0.002493199110031128	0.001060879945755005	0		0.44374771118164064	-2.4079716796875	0		-1.042378662109375	-0.03363455200195312	0		-0.7937157592773437	-2.316899658203125	0		1.386179931640625	-0.542939208984375	0		3.030551513671875	-0.07681585693359375	0		4.38387060546875	-0.022112504959106445	0		5.57756982421875	0.05369766235351563	0		-0.18185818481445312	5.90075927734375	0		
-0.006729795932769776	0.002357819080352783	0		0.3958810119628906	-2.388916748046875	0		-1.0936517333984375	-0.03452901077270508	0		-0.8058231201171875	-2.310551513671875	0		1.402839599609375	-0.5481356811523438	0		3.01433056640625	-0.0753594970703125	0		4.37747216796875	-0.029838306427001953	0		5.5625419921875	0.06515237426757813	0		-0.19733938598632814	5.89117333984375	0		
